<svg width="227" height="155" viewBox="0 0 227 155" fill="none" xmlns="http://www.w3.org/2000/svg">
<path opacity="0.2" fill-rule="evenodd" clip-rule="evenodd" d="M229.862 33.491C222.97 32.5865 216.282 35.6328 210.417 39.3634C204.552 43.0963 198.39 47.2721 191.437 47.2229C182.349 47.1549 173.967 36.078 165.303 33.3293C157.968 31.0024 150.472 36.0663 144.991 41.4677C127.6 58.6114 116.166 42.0746 110.329 37.941C103.201 32.8934 96.5857 28.092 82.8399 38.9134C78.0041 42.7213 70.81 48.6687 64.6615 48.3758C52.3128 47.7899 45.9064 31.1125 31.0753 33.8073C8.06331 37.9902 0.827087 61.7937 0.271536 68.3292C-0.351993 75.6333 8.36804 85.1074 17.5452 76.6995C22.9225 71.7739 26.9028 70.9209 34.1742 71.4716C43.1966 72.1558 54.3146 85.091 64.12 85.9533C75.7397 86.9727 88.8596 69.2853 98.5641 69.6953C103.442 69.9016 112.68 76.6058 115.922 80.252C123.067 88.2873 131.857 89.4636 141.951 81.7119C147.274 77.6251 153.207 71.2326 161.412 70.6467C167.708 70.1992 174.635 75.6193 179.778 79.2795C195.832 90.7103 199.358 85.6018 210.67 78.5508C215.277 75.6802 222.028 71.256 227.454 71.256C233.779 71.256 237.787 75.3966 241.441 77.3346C246.46 79.9942 254.821 83.1718 260.293 70.8904C266.258 57.5077 238.767 34.658 229.862 33.491Z" fill="#DE482A"/>
<path fill-rule="evenodd" clip-rule="evenodd" d="M213.962 1.89672L214.062 2.17335L56.9846 59.2279L96.5225 148.998L213.732 1.71386L213.962 1.89672L214.062 2.17335L213.962 1.89672L214.191 2.07958L96.3771 150.121L56.197 58.8903L214.838 1.26843L214.191 2.07958L213.962 1.89672Z" fill="#0A0B09"/>
<path fill-rule="evenodd" clip-rule="evenodd" d="M96.4499 149.56L96.4733 149.267L148.479 153.506L212.829 3.79082L96.6796 149.743L96.4499 149.56L96.4733 149.267L96.4499 149.56L96.2202 149.378L215.096 0L148.852 154.125L95.8779 149.807L96.2202 149.378L96.4499 149.56Z" fill="#0A0B09"/>
</svg>
