<svg width="164" height="147" viewBox="0 0 164 147" fill="none" xmlns="http://www.w3.org/2000/svg">
<path fill-rule="evenodd" clip-rule="evenodd" d="M0.57703 115.277H0.306885V31.6148L60.2251 0V84.1069L0.306885 115.724V115.277H0.57703L0.449521 115.038L59.6848 83.7844V0.892284L0.847175 31.9395V115.277H0.57703L0.449521 115.038L0.57703 115.277Z" fill="white"/>
<path fill-rule="evenodd" clip-rule="evenodd" d="M119.335 115.277H119.065V31.9395L60.2251 0.892284V83.7844L119.46 115.038L119.335 115.277H119.065H119.335L119.208 115.513L59.6848 84.1069V0L119.605 31.6148V115.724L119.208 115.513L119.335 115.277Z" fill="white"/>
<path fill-rule="evenodd" clip-rule="evenodd" d="M119.335 115.277L119.207 115.513L59.9549 84.2489L1.15406 115.277L59.9549 146.302L119.207 115.038L119.335 115.277L119.207 115.513L119.335 115.277L119.46 115.513L59.9549 146.911L0 115.277L59.9549 83.6404L119.912 115.277L119.46 115.513L119.335 115.277Z" fill="white"/>
<path opacity="0.3" fill-rule="evenodd" clip-rule="evenodd" d="M94.5142 54.0047L109.632 38.913C110.041 38.5048 110.585 38.2813 111.162 38.2813C111.738 38.2813 112.285 38.5069 112.691 38.913L126.28 52.4768L139.869 38.913C140.275 38.5048 140.821 38.2813 141.398 38.2813C141.975 38.2813 142.521 38.5069 142.929 38.913L156.516 52.4768L170.105 38.913C170.514 38.5048 171.058 38.2813 171.634 38.2813C172.211 38.2813 172.757 38.5069 173.166 38.913L188.282 54.0047C189.124 54.8449 189.122 56.2051 188.277 57.0432C187.433 57.8813 186.066 57.8791 185.224 57.0389L171.634 43.473L158.047 57.0389C157.639 57.445 157.093 57.6707 156.516 57.6707C155.94 57.6707 155.393 57.445 154.987 57.0389L141.398 43.473L127.811 57.0389C127.403 57.445 126.856 57.6707 126.28 57.6707C125.703 57.6707 125.157 57.445 124.751 57.0389L111.162 43.473L97.5724 57.0389C96.7322 57.8791 95.3629 57.8813 94.5185 57.0432C93.674 56.2051 93.6719 54.8449 94.5142 54.0047Z" fill="white"/>
</svg>
