<svg width="192" height="140" viewBox="0 0 192 140" fill="none" xmlns="http://www.w3.org/2000/svg">
<path fill-rule="evenodd" clip-rule="evenodd" d="M74.7469 117.954V1.5379L191.163 117.954H74.7469Z" fill="white" fill-opacity="0.21"/>
<mask id="mask0" mask-type="alpha" maskUnits="userSpaceOnUse" x="74" y="1" width="118" height="118">
<path d="M74.5906 118.035V1.41846L191.207 118.035H74.5906Z" fill="white"/>
</mask>
<g mask="url(#mask0)">
<path fill-rule="evenodd" clip-rule="evenodd" d="M193.036 3.94122C191.778 3.94122 190.759 2.92212 190.759 1.664C190.759 0.405879 191.778 -0.61322 193.036 -0.61322C194.292 -0.61322 195.312 0.405879 195.312 1.664C195.312 2.92212 194.292 3.94122 193.036 3.94122Z" fill="white" fill-opacity="0.59"/>
<path fill-rule="evenodd" clip-rule="evenodd" d="M193.036 18.4258C191.778 18.4258 190.759 17.4067 190.759 16.1486C190.759 14.8904 191.778 13.8713 193.036 13.8713C194.292 13.8713 195.312 14.8904 195.312 16.1486C195.312 17.4067 194.292 18.4258 193.036 18.4258Z" fill="white" fill-opacity="0.59"/>
<path fill-rule="evenodd" clip-rule="evenodd" d="M193.036 32.9106C191.778 32.9106 190.759 31.8894 190.759 30.6334C190.759 29.3753 191.778 28.3562 193.036 28.3562C194.292 28.3562 195.312 29.3753 195.312 30.6334C195.312 31.8894 194.292 32.9106 193.036 32.9106Z" fill="white" fill-opacity="0.59"/>
<path fill-rule="evenodd" clip-rule="evenodd" d="M193.036 47.3929C191.778 47.3929 190.759 46.3738 190.759 45.1157C190.759 43.8598 191.778 42.8385 193.036 42.8385C194.292 42.8385 195.312 43.8598 195.312 45.1157C195.312 46.3738 194.292 47.3929 193.036 47.3929Z" fill="white" fill-opacity="0.59"/>
<path fill-rule="evenodd" clip-rule="evenodd" d="M193.036 61.8778C191.778 61.8778 190.759 60.8587 190.759 59.6006C190.759 58.3425 191.778 57.3234 193.036 57.3234C194.292 57.3234 195.312 58.3425 195.312 59.6006C195.312 60.8587 194.292 61.8778 193.036 61.8778Z" fill="white" fill-opacity="0.59"/>
<path fill-rule="evenodd" clip-rule="evenodd" d="M193.036 76.3624C191.778 76.3624 190.759 75.3433 190.759 74.0851C190.759 72.827 191.778 71.8079 193.036 71.8079C194.292 71.8079 195.312 72.827 195.312 74.0851C195.312 75.3433 194.292 76.3624 193.036 76.3624Z" fill="white" fill-opacity="0.59"/>
<path fill-rule="evenodd" clip-rule="evenodd" d="M193.036 90.8472C191.778 90.8472 190.759 89.8259 190.759 88.57C190.759 87.3119 191.778 86.2928 193.036 86.2928C194.292 86.2928 195.312 87.3119 195.312 88.57C195.312 89.8259 194.292 90.8472 193.036 90.8472Z" fill="white" fill-opacity="0.59"/>
<path fill-rule="evenodd" clip-rule="evenodd" d="M193.036 105.33C191.778 105.33 190.759 104.311 190.759 103.052C190.759 101.797 191.778 100.775 193.036 100.775C194.292 100.775 195.312 101.797 195.312 103.052C195.312 104.311 194.292 105.33 193.036 105.33Z" fill="white" fill-opacity="0.59"/>
<path fill-rule="evenodd" clip-rule="evenodd" d="M193.036 119.814C191.778 119.814 190.759 118.795 190.759 117.537C190.759 116.279 191.778 115.26 193.036 115.26C194.292 115.26 195.312 116.279 195.312 117.537C195.312 118.795 194.292 119.814 193.036 119.814Z" fill="white" fill-opacity="0.59"/>
<path fill-rule="evenodd" clip-rule="evenodd" d="M179.927 3.94122C178.671 3.94122 177.65 2.92212 177.65 1.664C177.65 0.405879 178.671 -0.61322 179.927 -0.61322C181.185 -0.61322 182.204 0.405879 182.204 1.664C182.204 2.92212 181.185 3.94122 179.927 3.94122Z" fill="white" fill-opacity="0.59"/>
<path fill-rule="evenodd" clip-rule="evenodd" d="M179.927 18.4258C178.671 18.4258 177.65 17.4067 177.65 16.1486C177.65 14.8904 178.671 13.8713 179.927 13.8713C181.185 13.8713 182.204 14.8904 182.204 16.1486C182.204 17.4067 181.185 18.4258 179.927 18.4258Z" fill="white" fill-opacity="0.59"/>
<path fill-rule="evenodd" clip-rule="evenodd" d="M179.927 32.9106C178.671 32.9106 177.65 31.8894 177.65 30.6334C177.65 29.3753 178.671 28.3562 179.927 28.3562C181.185 28.3562 182.204 29.3753 182.204 30.6334C182.204 31.8894 181.185 32.9106 179.927 32.9106Z" fill="white" fill-opacity="0.59"/>
<path fill-rule="evenodd" clip-rule="evenodd" d="M179.927 47.3929C178.671 47.3929 177.65 46.3738 177.65 45.1157C177.65 43.8598 178.671 42.8385 179.927 42.8385C181.185 42.8385 182.204 43.8598 182.204 45.1157C182.204 46.3738 181.185 47.3929 179.927 47.3929Z" fill="white" fill-opacity="0.59"/>
<path fill-rule="evenodd" clip-rule="evenodd" d="M179.927 61.8778C178.671 61.8778 177.65 60.8587 177.65 59.6006C177.65 58.3425 178.671 57.3234 179.927 57.3234C181.185 57.3234 182.204 58.3425 182.204 59.6006C182.204 60.8587 181.185 61.8778 179.927 61.8778Z" fill="white" fill-opacity="0.59"/>
<path fill-rule="evenodd" clip-rule="evenodd" d="M179.927 76.3624C178.671 76.3624 177.65 75.3433 177.65 74.0851C177.65 72.827 178.671 71.8079 179.927 71.8079C181.185 71.8079 182.204 72.827 182.204 74.0851C182.204 75.3433 181.185 76.3624 179.927 76.3624Z" fill="white" fill-opacity="0.59"/>
<path fill-rule="evenodd" clip-rule="evenodd" d="M179.927 90.8472C178.671 90.8472 177.65 89.8259 177.65 88.57C177.65 87.3119 178.671 86.2928 179.927 86.2928C181.185 86.2928 182.204 87.3119 182.204 88.57C182.204 89.8259 181.185 90.8472 179.927 90.8472Z" fill="white" fill-opacity="0.59"/>
<path fill-rule="evenodd" clip-rule="evenodd" d="M179.927 105.33C178.671 105.33 177.65 104.311 177.65 103.052C177.65 101.797 178.671 100.775 179.927 100.775C181.185 100.775 182.204 101.797 182.204 103.052C182.204 104.311 181.185 105.33 179.927 105.33Z" fill="white" fill-opacity="0.59"/>
<path fill-rule="evenodd" clip-rule="evenodd" d="M179.927 119.814C178.671 119.814 177.65 118.795 177.65 117.537C177.65 116.279 178.671 115.26 179.927 115.26C181.185 115.26 182.204 116.279 182.204 117.537C182.204 118.795 181.185 119.814 179.927 119.814Z" fill="white" fill-opacity="0.59"/>
<path fill-rule="evenodd" clip-rule="evenodd" d="M166.82 3.94122C165.564 3.94122 164.543 2.92212 164.543 1.664C164.543 0.405879 165.564 -0.61322 166.82 -0.61322C168.078 -0.61322 169.097 0.405879 169.097 1.664C169.097 2.92212 168.078 3.94122 166.82 3.94122Z" fill="white" fill-opacity="0.59"/>
<path fill-rule="evenodd" clip-rule="evenodd" d="M166.82 18.4258C165.564 18.4258 164.543 17.4067 164.543 16.1486C164.543 14.8904 165.564 13.8713 166.82 13.8713C168.078 13.8713 169.097 14.8904 169.097 16.1486C169.097 17.4067 168.078 18.4258 166.82 18.4258Z" fill="white" fill-opacity="0.59"/>
<path fill-rule="evenodd" clip-rule="evenodd" d="M166.82 32.9106C165.564 32.9106 164.543 31.8894 164.543 30.6334C164.543 29.3753 165.564 28.3562 166.82 28.3562C168.078 28.3562 169.097 29.3753 169.097 30.6334C169.097 31.8894 168.078 32.9106 166.82 32.9106Z" fill="white" fill-opacity="0.59"/>
<path fill-rule="evenodd" clip-rule="evenodd" d="M166.82 47.3929C165.564 47.3929 164.543 46.3738 164.543 45.1157C164.543 43.8598 165.564 42.8385 166.82 42.8385C168.078 42.8385 169.097 43.8598 169.097 45.1157C169.097 46.3738 168.078 47.3929 166.82 47.3929Z" fill="white" fill-opacity="0.59"/>
<path fill-rule="evenodd" clip-rule="evenodd" d="M166.82 61.8778C165.564 61.8778 164.543 60.8587 164.543 59.6006C164.543 58.3425 165.564 57.3234 166.82 57.3234C168.078 57.3234 169.097 58.3425 169.097 59.6006C169.097 60.8587 168.078 61.8778 166.82 61.8778Z" fill="white" fill-opacity="0.59"/>
<path fill-rule="evenodd" clip-rule="evenodd" d="M166.82 76.3624C165.564 76.3624 164.543 75.3433 164.543 74.0851C164.543 72.827 165.564 71.8079 166.82 71.8079C168.078 71.8079 169.097 72.827 169.097 74.0851C169.097 75.3433 168.078 76.3624 166.82 76.3624Z" fill="white" fill-opacity="0.59"/>
<path fill-rule="evenodd" clip-rule="evenodd" d="M166.82 90.8472C165.564 90.8472 164.543 89.8259 164.543 88.57C164.543 87.3119 165.564 86.2928 166.82 86.2928C168.078 86.2928 169.097 87.3119 169.097 88.57C169.097 89.8259 168.078 90.8472 166.82 90.8472Z" fill="white" fill-opacity="0.59"/>
<path fill-rule="evenodd" clip-rule="evenodd" d="M166.82 105.33C165.564 105.33 164.543 104.311 164.543 103.052C164.543 101.797 165.564 100.775 166.82 100.775C168.078 100.775 169.097 101.797 169.097 103.052C169.097 104.311 168.078 105.33 166.82 105.33Z" fill="white" fill-opacity="0.59"/>
<path fill-rule="evenodd" clip-rule="evenodd" d="M166.82 119.814C165.564 119.814 164.543 118.795 164.543 117.537C164.543 116.279 165.564 115.26 166.82 115.26C168.078 115.26 169.097 116.279 169.097 117.537C169.097 118.795 168.078 119.814 166.82 119.814Z" fill="white" fill-opacity="0.59"/>
<path fill-rule="evenodd" clip-rule="evenodd" d="M153.713 3.94122C152.455 3.94122 151.436 2.92212 151.436 1.664C151.436 0.405879 152.455 -0.61322 153.713 -0.61322C154.971 -0.61322 155.99 0.405879 155.99 1.664C155.99 2.92212 154.971 3.94122 153.713 3.94122Z" fill="white" fill-opacity="0.59"/>
<path fill-rule="evenodd" clip-rule="evenodd" d="M153.713 18.4258C152.455 18.4258 151.436 17.4067 151.436 16.1486C151.436 14.8904 152.455 13.8713 153.713 13.8713C154.971 13.8713 155.99 14.8904 155.99 16.1486C155.99 17.4067 154.971 18.4258 153.713 18.4258Z" fill="white" fill-opacity="0.59"/>
<path fill-rule="evenodd" clip-rule="evenodd" d="M153.713 32.9106C152.455 32.9106 151.436 31.8894 151.436 30.6334C151.436 29.3753 152.455 28.3562 153.713 28.3562C154.971 28.3562 155.99 29.3753 155.99 30.6334C155.99 31.8894 154.971 32.9106 153.713 32.9106Z" fill="white" fill-opacity="0.59"/>
<path fill-rule="evenodd" clip-rule="evenodd" d="M153.713 47.3929C152.455 47.3929 151.436 46.3738 151.436 45.1157C151.436 43.8598 152.455 42.8385 153.713 42.8385C154.971 42.8385 155.99 43.8598 155.99 45.1157C155.99 46.3738 154.971 47.3929 153.713 47.3929Z" fill="white" fill-opacity="0.59"/>
<path fill-rule="evenodd" clip-rule="evenodd" d="M153.713 61.8778C152.455 61.8778 151.436 60.8587 151.436 59.6006C151.436 58.3425 152.455 57.3234 153.713 57.3234C154.971 57.3234 155.99 58.3425 155.99 59.6006C155.99 60.8587 154.971 61.8778 153.713 61.8778Z" fill="white" fill-opacity="0.59"/>
<path fill-rule="evenodd" clip-rule="evenodd" d="M153.713 76.3624C152.455 76.3624 151.436 75.3433 151.436 74.0851C151.436 72.827 152.455 71.8079 153.713 71.8079C154.971 71.8079 155.99 72.827 155.99 74.0851C155.99 75.3433 154.971 76.3624 153.713 76.3624Z" fill="white" fill-opacity="0.59"/>
<path fill-rule="evenodd" clip-rule="evenodd" d="M153.713 90.8472C152.455 90.8472 151.436 89.8259 151.436 88.57C151.436 87.3119 152.455 86.2928 153.713 86.2928C154.971 86.2928 155.99 87.3119 155.99 88.57C155.99 89.8259 154.971 90.8472 153.713 90.8472Z" fill="white" fill-opacity="0.59"/>
<path fill-rule="evenodd" clip-rule="evenodd" d="M153.713 105.33C152.455 105.33 151.436 104.311 151.436 103.052C151.436 101.797 152.455 100.775 153.713 100.775C154.971 100.775 155.99 101.797 155.99 103.052C155.99 104.311 154.971 105.33 153.713 105.33Z" fill="white" fill-opacity="0.59"/>
<path fill-rule="evenodd" clip-rule="evenodd" d="M153.713 119.814C152.455 119.814 151.436 118.795 151.436 117.537C151.436 116.279 152.455 115.26 153.713 115.26C154.971 115.26 155.99 116.279 155.99 117.537C155.99 118.795 154.971 119.814 153.713 119.814Z" fill="white" fill-opacity="0.59"/>
<path fill-rule="evenodd" clip-rule="evenodd" d="M140.606 3.94122C139.348 3.94122 138.329 2.92212 138.329 1.664C138.329 0.405879 139.348 -0.61322 140.606 -0.61322C141.864 -0.61322 142.883 0.405879 142.883 1.664C142.883 2.92212 141.864 3.94122 140.606 3.94122Z" fill="white" fill-opacity="0.59"/>
<path fill-rule="evenodd" clip-rule="evenodd" d="M140.606 18.4258C139.348 18.4258 138.329 17.4067 138.329 16.1486C138.329 14.8904 139.348 13.8713 140.606 13.8713C141.864 13.8713 142.883 14.8904 142.883 16.1486C142.883 17.4067 141.864 18.4258 140.606 18.4258Z" fill="white" fill-opacity="0.59"/>
<path fill-rule="evenodd" clip-rule="evenodd" d="M140.606 32.9106C139.348 32.9106 138.329 31.8894 138.329 30.6334C138.329 29.3753 139.348 28.3562 140.606 28.3562C141.864 28.3562 142.883 29.3753 142.883 30.6334C142.883 31.8894 141.864 32.9106 140.606 32.9106Z" fill="white" fill-opacity="0.59"/>
<path fill-rule="evenodd" clip-rule="evenodd" d="M140.606 47.3929C139.348 47.3929 138.329 46.3738 138.329 45.1157C138.329 43.8598 139.348 42.8385 140.606 42.8385C141.864 42.8385 142.883 43.8598 142.883 45.1157C142.883 46.3738 141.864 47.3929 140.606 47.3929Z" fill="white" fill-opacity="0.59"/>
<path fill-rule="evenodd" clip-rule="evenodd" d="M140.606 61.8778C139.348 61.8778 138.329 60.8587 138.329 59.6006C138.329 58.3425 139.348 57.3234 140.606 57.3234C141.864 57.3234 142.883 58.3425 142.883 59.6006C142.883 60.8587 141.864 61.8778 140.606 61.8778Z" fill="white" fill-opacity="0.59"/>
<path fill-rule="evenodd" clip-rule="evenodd" d="M140.606 76.3624C139.348 76.3624 138.329 75.3433 138.329 74.0851C138.329 72.827 139.348 71.8079 140.606 71.8079C141.864 71.8079 142.883 72.827 142.883 74.0851C142.883 75.3433 141.864 76.3624 140.606 76.3624Z" fill="white" fill-opacity="0.59"/>
<path fill-rule="evenodd" clip-rule="evenodd" d="M140.606 90.8472C139.348 90.8472 138.329 89.8259 138.329 88.57C138.329 87.3119 139.348 86.2928 140.606 86.2928C141.864 86.2928 142.883 87.3119 142.883 88.57C142.883 89.8259 141.864 90.8472 140.606 90.8472Z" fill="white" fill-opacity="0.59"/>
<path fill-rule="evenodd" clip-rule="evenodd" d="M140.606 105.33C139.348 105.33 138.329 104.311 138.329 103.052C138.329 101.797 139.348 100.775 140.606 100.775C141.864 100.775 142.883 101.797 142.883 103.052C142.883 104.311 141.864 105.33 140.606 105.33Z" fill="white" fill-opacity="0.59"/>
<path fill-rule="evenodd" clip-rule="evenodd" d="M140.606 119.814C139.348 119.814 138.329 118.795 138.329 117.537C138.329 116.279 139.348 115.26 140.606 115.26C141.864 115.26 142.883 116.279 142.883 117.537C142.883 118.795 141.864 119.814 140.606 119.814Z" fill="white" fill-opacity="0.59"/>
<path fill-rule="evenodd" clip-rule="evenodd" d="M127.499 3.94122C126.241 3.94122 125.222 2.92212 125.222 1.664C125.222 0.405879 126.241 -0.61322 127.499 -0.61322C128.757 -0.61322 129.776 0.405879 129.776 1.664C129.776 2.92212 128.757 3.94122 127.499 3.94122Z" fill="white" fill-opacity="0.59"/>
<path fill-rule="evenodd" clip-rule="evenodd" d="M127.499 18.4258C126.241 18.4258 125.222 17.4067 125.222 16.1486C125.222 14.8904 126.241 13.8713 127.499 13.8713C128.757 13.8713 129.776 14.8904 129.776 16.1486C129.776 17.4067 128.757 18.4258 127.499 18.4258Z" fill="white" fill-opacity="0.59"/>
<path fill-rule="evenodd" clip-rule="evenodd" d="M127.499 32.9106C126.241 32.9106 125.222 31.8894 125.222 30.6334C125.222 29.3753 126.241 28.3562 127.499 28.3562C128.757 28.3562 129.776 29.3753 129.776 30.6334C129.776 31.8894 128.757 32.9106 127.499 32.9106Z" fill="white" fill-opacity="0.59"/>
<path fill-rule="evenodd" clip-rule="evenodd" d="M127.499 47.3929C126.241 47.3929 125.222 46.3738 125.222 45.1157C125.222 43.8598 126.241 42.8385 127.499 42.8385C128.757 42.8385 129.776 43.8598 129.776 45.1157C129.776 46.3738 128.757 47.3929 127.499 47.3929Z" fill="white" fill-opacity="0.59"/>
<path fill-rule="evenodd" clip-rule="evenodd" d="M127.499 61.8778C126.241 61.8778 125.222 60.8587 125.222 59.6006C125.222 58.3425 126.241 57.3234 127.499 57.3234C128.757 57.3234 129.776 58.3425 129.776 59.6006C129.776 60.8587 128.757 61.8778 127.499 61.8778Z" fill="white" fill-opacity="0.59"/>
<path fill-rule="evenodd" clip-rule="evenodd" d="M127.499 76.3624C126.241 76.3624 125.222 75.3433 125.222 74.0851C125.222 72.827 126.241 71.8079 127.499 71.8079C128.757 71.8079 129.776 72.827 129.776 74.0851C129.776 75.3433 128.757 76.3624 127.499 76.3624Z" fill="white" fill-opacity="0.59"/>
<path fill-rule="evenodd" clip-rule="evenodd" d="M127.499 90.8472C126.241 90.8472 125.222 89.8259 125.222 88.57C125.222 87.3119 126.241 86.2928 127.499 86.2928C128.757 86.2928 129.776 87.3119 129.776 88.57C129.776 89.8259 128.757 90.8472 127.499 90.8472Z" fill="white" fill-opacity="0.59"/>
<path fill-rule="evenodd" clip-rule="evenodd" d="M127.499 105.33C126.241 105.33 125.222 104.311 125.222 103.052C125.222 101.797 126.241 100.775 127.499 100.775C128.757 100.775 129.776 101.797 129.776 103.052C129.776 104.311 128.757 105.33 127.499 105.33Z" fill="white" fill-opacity="0.59"/>
<path fill-rule="evenodd" clip-rule="evenodd" d="M127.499 119.814C126.241 119.814 125.222 118.795 125.222 117.537C125.222 116.279 126.241 115.26 127.499 115.26C128.757 115.26 129.776 116.279 129.776 117.537C129.776 118.795 128.757 119.814 127.499 119.814Z" fill="white" fill-opacity="0.59"/>
<path fill-rule="evenodd" clip-rule="evenodd" d="M114.392 3.94122C113.134 3.94122 112.115 2.92212 112.115 1.664C112.115 0.405879 113.134 -0.61322 114.392 -0.61322C115.65 -0.61322 116.669 0.405879 116.669 1.664C116.669 2.92212 115.65 3.94122 114.392 3.94122Z" fill="white" fill-opacity="0.59"/>
<path fill-rule="evenodd" clip-rule="evenodd" d="M114.392 18.4258C113.134 18.4258 112.115 17.4067 112.115 16.1486C112.115 14.8904 113.134 13.8713 114.392 13.8713C115.65 13.8713 116.669 14.8904 116.669 16.1486C116.669 17.4067 115.65 18.4258 114.392 18.4258Z" fill="white" fill-opacity="0.59"/>
<path fill-rule="evenodd" clip-rule="evenodd" d="M114.392 32.9106C113.134 32.9106 112.115 31.8894 112.115 30.6334C112.115 29.3753 113.134 28.3562 114.392 28.3562C115.65 28.3562 116.669 29.3753 116.669 30.6334C116.669 31.8894 115.65 32.9106 114.392 32.9106Z" fill="white" fill-opacity="0.59"/>
<path fill-rule="evenodd" clip-rule="evenodd" d="M114.392 47.3929C113.134 47.3929 112.115 46.3738 112.115 45.1157C112.115 43.8598 113.134 42.8385 114.392 42.8385C115.65 42.8385 116.669 43.8598 116.669 45.1157C116.669 46.3738 115.65 47.3929 114.392 47.3929Z" fill="white" fill-opacity="0.59"/>
<path fill-rule="evenodd" clip-rule="evenodd" d="M114.392 61.8778C113.134 61.8778 112.115 60.8587 112.115 59.6006C112.115 58.3425 113.134 57.3234 114.392 57.3234C115.65 57.3234 116.669 58.3425 116.669 59.6006C116.669 60.8587 115.65 61.8778 114.392 61.8778Z" fill="white" fill-opacity="0.59"/>
<path fill-rule="evenodd" clip-rule="evenodd" d="M114.392 76.3624C113.134 76.3624 112.115 75.3433 112.115 74.0851C112.115 72.827 113.134 71.8079 114.392 71.8079C115.65 71.8079 116.669 72.827 116.669 74.0851C116.669 75.3433 115.65 76.3624 114.392 76.3624Z" fill="white" fill-opacity="0.59"/>
<path fill-rule="evenodd" clip-rule="evenodd" d="M114.392 90.8472C113.134 90.8472 112.115 89.8259 112.115 88.57C112.115 87.3119 113.134 86.2928 114.392 86.2928C115.65 86.2928 116.669 87.3119 116.669 88.57C116.669 89.8259 115.65 90.8472 114.392 90.8472Z" fill="white" fill-opacity="0.59"/>
<path fill-rule="evenodd" clip-rule="evenodd" d="M114.392 105.33C113.134 105.33 112.115 104.311 112.115 103.052C112.115 101.797 113.134 100.775 114.392 100.775C115.65 100.775 116.669 101.797 116.669 103.052C116.669 104.311 115.65 105.33 114.392 105.33Z" fill="white" fill-opacity="0.59"/>
<path fill-rule="evenodd" clip-rule="evenodd" d="M114.392 119.814C113.134 119.814 112.115 118.795 112.115 117.537C112.115 116.279 113.134 115.26 114.392 115.26C115.65 115.26 116.669 116.279 116.669 117.537C116.669 118.795 115.65 119.814 114.392 119.814Z" fill="white" fill-opacity="0.59"/>
<path fill-rule="evenodd" clip-rule="evenodd" d="M101.285 3.94122C100.027 3.94122 99.0077 2.92212 99.0077 1.664C99.0077 0.405879 100.027 -0.61322 101.285 -0.61322C102.543 -0.61322 103.562 0.405879 103.562 1.664C103.562 2.92212 102.543 3.94122 101.285 3.94122Z" fill="white" fill-opacity="0.59"/>
<path fill-rule="evenodd" clip-rule="evenodd" d="M101.285 18.4258C100.027 18.4258 99.0077 17.4067 99.0077 16.1486C99.0077 14.8904 100.027 13.8713 101.285 13.8713C102.543 13.8713 103.562 14.8904 103.562 16.1486C103.562 17.4067 102.543 18.4258 101.285 18.4258Z" fill="white" fill-opacity="0.59"/>
<path fill-rule="evenodd" clip-rule="evenodd" d="M101.285 32.9106C100.027 32.9106 99.0077 31.8894 99.0077 30.6334C99.0077 29.3753 100.027 28.3562 101.285 28.3562C102.543 28.3562 103.562 29.3753 103.562 30.6334C103.562 31.8894 102.543 32.9106 101.285 32.9106Z" fill="white" fill-opacity="0.59"/>
<path fill-rule="evenodd" clip-rule="evenodd" d="M101.285 47.3929C100.027 47.3929 99.0077 46.3738 99.0077 45.1157C99.0077 43.8598 100.027 42.8385 101.285 42.8385C102.543 42.8385 103.562 43.8598 103.562 45.1157C103.562 46.3738 102.543 47.3929 101.285 47.3929Z" fill="white" fill-opacity="0.59"/>
<path fill-rule="evenodd" clip-rule="evenodd" d="M101.285 61.8778C100.027 61.8778 99.0077 60.8587 99.0077 59.6006C99.0077 58.3425 100.027 57.3234 101.285 57.3234C102.543 57.3234 103.562 58.3425 103.562 59.6006C103.562 60.8587 102.543 61.8778 101.285 61.8778Z" fill="white" fill-opacity="0.59"/>
<path fill-rule="evenodd" clip-rule="evenodd" d="M101.285 76.3624C100.027 76.3624 99.0077 75.3433 99.0077 74.0851C99.0077 72.827 100.027 71.8079 101.285 71.8079C102.543 71.8079 103.562 72.827 103.562 74.0851C103.562 75.3433 102.543 76.3624 101.285 76.3624Z" fill="white" fill-opacity="0.59"/>
<path fill-rule="evenodd" clip-rule="evenodd" d="M101.285 90.8472C100.027 90.8472 99.0077 89.8259 99.0077 88.57C99.0077 87.3119 100.027 86.2928 101.285 86.2928C102.543 86.2928 103.562 87.3119 103.562 88.57C103.562 89.8259 102.543 90.8472 101.285 90.8472Z" fill="white" fill-opacity="0.59"/>
<path fill-rule="evenodd" clip-rule="evenodd" d="M101.285 105.33C100.027 105.33 99.0077 104.311 99.0077 103.052C99.0077 101.797 100.027 100.775 101.285 100.775C102.543 100.775 103.562 101.797 103.562 103.052C103.562 104.311 102.543 105.33 101.285 105.33Z" fill="white" fill-opacity="0.59"/>
<path fill-rule="evenodd" clip-rule="evenodd" d="M101.285 119.814C100.027 119.814 99.0077 118.795 99.0077 117.537C99.0077 116.279 100.027 115.26 101.285 115.26C102.543 115.26 103.562 116.279 103.562 117.537C103.562 118.795 102.543 119.814 101.285 119.814Z" fill="white" fill-opacity="0.59"/>
<path fill-rule="evenodd" clip-rule="evenodd" d="M88.178 3.94122C86.9199 3.94122 85.9008 2.92212 85.9008 1.664C85.9008 0.405879 86.9199 -0.61322 88.178 -0.61322C89.4361 -0.61322 90.4552 0.405879 90.4552 1.664C90.4552 2.92212 89.4361 3.94122 88.178 3.94122Z" fill="white" fill-opacity="0.59"/>
<path fill-rule="evenodd" clip-rule="evenodd" d="M88.178 18.4258C86.9199 18.4258 85.9008 17.4067 85.9008 16.1486C85.9008 14.8904 86.9199 13.8713 88.178 13.8713C89.4361 13.8713 90.4552 14.8904 90.4552 16.1486C90.4552 17.4067 89.4361 18.4258 88.178 18.4258Z" fill="white" fill-opacity="0.59"/>
<path fill-rule="evenodd" clip-rule="evenodd" d="M88.178 32.9106C86.9199 32.9106 85.9008 31.8894 85.9008 30.6334C85.9008 29.3753 86.9199 28.3562 88.178 28.3562C89.4361 28.3562 90.4552 29.3753 90.4552 30.6334C90.4552 31.8894 89.4361 32.9106 88.178 32.9106Z" fill="white" fill-opacity="0.59"/>
<path fill-rule="evenodd" clip-rule="evenodd" d="M88.178 47.3929C86.9199 47.3929 85.9008 46.3738 85.9008 45.1157C85.9008 43.8598 86.9199 42.8385 88.178 42.8385C89.4361 42.8385 90.4552 43.8598 90.4552 45.1157C90.4552 46.3738 89.4361 47.3929 88.178 47.3929Z" fill="white" fill-opacity="0.59"/>
<path fill-rule="evenodd" clip-rule="evenodd" d="M88.178 61.8778C86.9199 61.8778 85.9008 60.8587 85.9008 59.6006C85.9008 58.3425 86.9199 57.3234 88.178 57.3234C89.4361 57.3234 90.4552 58.3425 90.4552 59.6006C90.4552 60.8587 89.4361 61.8778 88.178 61.8778Z" fill="white" fill-opacity="0.59"/>
<path fill-rule="evenodd" clip-rule="evenodd" d="M88.178 76.3624C86.9199 76.3624 85.9008 75.3433 85.9008 74.0851C85.9008 72.827 86.9199 71.8079 88.178 71.8079C89.4361 71.8079 90.4552 72.827 90.4552 74.0851C90.4552 75.3433 89.4361 76.3624 88.178 76.3624Z" fill="white" fill-opacity="0.59"/>
<path fill-rule="evenodd" clip-rule="evenodd" d="M88.178 90.8472C86.9199 90.8472 85.9008 89.8259 85.9008 88.57C85.9008 87.3119 86.9199 86.2928 88.178 86.2928C89.4361 86.2928 90.4552 87.3119 90.4552 88.57C90.4552 89.8259 89.4361 90.8472 88.178 90.8472Z" fill="white" fill-opacity="0.59"/>
<path fill-rule="evenodd" clip-rule="evenodd" d="M88.178 105.33C86.9199 105.33 85.9008 104.311 85.9008 103.052C85.9008 101.797 86.9199 100.775 88.178 100.775C89.4361 100.775 90.4552 101.797 90.4552 103.052C90.4552 104.311 89.4361 105.33 88.178 105.33Z" fill="white" fill-opacity="0.59"/>
<path fill-rule="evenodd" clip-rule="evenodd" d="M88.178 119.814C86.9199 119.814 85.9008 118.795 85.9008 117.537C85.9008 116.279 86.9199 115.26 88.178 115.26C89.4361 115.26 90.4552 116.279 90.4552 117.537C90.4552 118.795 89.4361 119.814 88.178 119.814Z" fill="white" fill-opacity="0.59"/>
<path fill-rule="evenodd" clip-rule="evenodd" d="M75.0708 3.94122C73.8127 3.94122 72.7936 2.92212 72.7936 1.664C72.7936 0.405879 73.8127 -0.61322 75.0708 -0.61322C76.3267 -0.61322 77.348 0.405879 77.348 1.664C77.348 2.92212 76.3267 3.94122 75.0708 3.94122Z" fill="white" fill-opacity="0.59"/>
<path fill-rule="evenodd" clip-rule="evenodd" d="M75.0708 18.4258C73.8127 18.4258 72.7936 17.4067 72.7936 16.1486C72.7936 14.8904 73.8127 13.8713 75.0708 13.8713C76.3267 13.8713 77.348 14.8904 77.348 16.1486C77.348 17.4067 76.3267 18.4258 75.0708 18.4258Z" fill="white" fill-opacity="0.59"/>
<path fill-rule="evenodd" clip-rule="evenodd" d="M75.0708 32.9106C73.8127 32.9106 72.7936 31.8894 72.7936 30.6334C72.7936 29.3753 73.8127 28.3562 75.0708 28.3562C76.3267 28.3562 77.348 29.3753 77.348 30.6334C77.348 31.8894 76.3267 32.9106 75.0708 32.9106Z" fill="white" fill-opacity="0.59"/>
<path fill-rule="evenodd" clip-rule="evenodd" d="M75.0708 47.3929C73.8127 47.3929 72.7936 46.3738 72.7936 45.1157C72.7936 43.8598 73.8127 42.8385 75.0708 42.8385C76.3267 42.8385 77.348 43.8598 77.348 45.1157C77.348 46.3738 76.3267 47.3929 75.0708 47.3929Z" fill="white" fill-opacity="0.59"/>
<path fill-rule="evenodd" clip-rule="evenodd" d="M75.0708 61.8778C73.8127 61.8778 72.7936 60.8587 72.7936 59.6006C72.7936 58.3425 73.8127 57.3234 75.0708 57.3234C76.3267 57.3234 77.348 58.3425 77.348 59.6006C77.348 60.8587 76.3267 61.8778 75.0708 61.8778Z" fill="white" fill-opacity="0.59"/>
<path fill-rule="evenodd" clip-rule="evenodd" d="M75.0708 76.3624C73.8127 76.3624 72.7936 75.3433 72.7936 74.0851C72.7936 72.827 73.8127 71.8079 75.0708 71.8079C76.3267 71.8079 77.348 72.827 77.348 74.0851C77.348 75.3433 76.3267 76.3624 75.0708 76.3624Z" fill="white" fill-opacity="0.59"/>
<path fill-rule="evenodd" clip-rule="evenodd" d="M75.0708 90.8472C73.8127 90.8472 72.7936 89.8259 72.7936 88.57C72.7936 87.3119 73.8127 86.2928 75.0708 86.2928C76.3267 86.2928 77.348 87.3119 77.348 88.57C77.348 89.8259 76.3267 90.8472 75.0708 90.8472Z" fill="white" fill-opacity="0.59"/>
<path fill-rule="evenodd" clip-rule="evenodd" d="M75.0708 105.33C73.8127 105.33 72.7936 104.311 72.7936 103.052C72.7936 101.797 73.8127 100.775 75.0708 100.775C76.3267 100.775 77.348 101.797 77.348 103.052C77.348 104.311 76.3267 105.33 75.0708 105.33Z" fill="white" fill-opacity="0.59"/>
<path fill-rule="evenodd" clip-rule="evenodd" d="M75.0708 119.814C73.8127 119.814 72.7936 118.795 72.7936 117.537C72.7936 116.279 73.8127 115.26 75.0708 115.26C76.3267 115.26 77.348 116.279 77.348 117.537C77.348 118.795 76.3267 119.814 75.0708 119.814Z" fill="white" fill-opacity="0.59"/>
</g>
<path fill-rule="evenodd" clip-rule="evenodd" d="M52.5861 23.1419H52.8577V139.457H169.058L190.238 118.276H74.0379V2.07427L52.7773 23.3352L52.5861 23.1419H52.8577H52.5861L52.395 22.9507L74.581 0.764404V117.733H191.55L169.284 140H52.3146V23.0311L52.395 22.9507L52.5861 23.1419Z" fill="white"/>
<mask id="mask1" mask-type="alpha" maskUnits="userSpaceOnUse" x="0" y="63" width="92" height="77">
<path d="M0 63.6543H91.7622V139.889H0V63.6543Z" fill="white"/>
</mask>
<g mask="url(#mask1)">
<path fill-rule="evenodd" clip-rule="evenodd" d="M74.6052 118.187L52.9284 139.888L52.5469 139.504L74.2237 117.803" fill="white"/>
<path opacity="0.2" fill-rule="evenodd" clip-rule="evenodd" d="M0.60846 78.5967L15.2449 64.5865C15.64 64.2095 16.169 64 16.7273 64C17.2856 64 17.8146 64.2095 18.2077 64.5865L31.3637 77.1803L44.5177 64.5865C44.9129 64.2095 45.4419 64 46.0001 64C46.5584 64 47.0853 64.2095 47.4805 64.5865L60.6365 77.1803L73.7926 64.5865C74.1857 64.2095 74.7147 64 75.2729 64C75.8312 64 76.3581 64.2095 76.7533 64.5865L91.3897 78.5967C92.2052 79.3767 92.2031 80.6415 91.3855 81.4175C90.568 82.1955 89.2423 82.1935 88.429 81.4135L75.2729 68.8217L62.1169 81.4135C61.7217 81.7905 61.1948 82 60.6365 82C60.0783 82 59.5493 81.7905 59.1562 81.4135L46.0001 68.8217L32.8441 81.4135C32.451 81.7905 31.922 82 31.3637 82C30.8055 82 30.2765 81.7905 29.8813 81.4135L16.7273 68.8217L3.57129 81.4135C2.75583 82.1935 1.43228 82.1955 0.614733 81.4175C-0.202815 80.6415 -0.204906 79.3767 0.60846 78.5967Z" fill="white"/>
</g>
</svg>
