<svg width="200" height="177" viewBox="0 0 200 177" fill="none" xmlns="http://www.w3.org/2000/svg">
<path fill-rule="evenodd" clip-rule="evenodd" d="M199.7 104.123C193.729 108.138 192.331 108.878 186.777 114.907C181.22 120.935 175.937 127.575 168.626 131.281C153.09 139.154 133.536 131.492 117.23 137.616C106.888 141.499 99.3607 150.349 92.2029 158.764C88.5667 163.04 84.7298 167.425 79.6 169.699C74.627 171.905 68.9931 171.879 63.5548 171.817C57.1758 171.743 50.7952 171.67 44.4162 171.596C39.1583 171.535 30.1883 172.109 24.9253 176.309L25.0163 138.078C30.5777 131.716 43.9274 128.426 50.8019 127.774C55.2878 127.347 59.8461 127.48 64.2494 126.524C70.8087 125.1 76.6449 121.329 81.6921 116.905C86.7326 112.489 91.1459 107.356 94.7552 101.709C98.5077 95.8375 101.618 89.1737 107.392 85.2736C112.96 81.5117 120.04 80.9974 126.756 80.7698C140.352 80.3128 155.29 80.0818 165.521 71.113C168.985 68.0762 171.63 64.2333 174.238 60.4344C178.483 54.2478 182.727 48.0611 186.974 41.8745C190.104 37.3134 194.084 29.7458 199.609 29.4625L199.7 104.123Z" fill="#F1F1F1"/>
<path fill-rule="evenodd" clip-rule="evenodd" d="M25.0148 176.255L24.9136 176.44L0.000488281 163.016V124.357L25.2257 137.948V176.609L24.9136 176.44L25.0148 176.255H24.804V138.2L0.42218 125.063V162.765L25.1143 176.069L25.0148 176.255H24.804H25.0148Z" fill="#0A0B09"/>
<path fill-rule="evenodd" clip-rule="evenodd" d="M150.049 0.633667L200 27.5082V104.237H199.578V27.7594L149.85 1.00457L150.049 0.633667Z" fill="#0A0B09"/>
<mask id="mask0" mask-type="alpha" maskUnits="userSpaceOnUse" x="25" y="29" width="175" height="148">
<path d="M199.751 104.114C193.784 108.128 192.388 108.868 186.837 114.894C181.285 120.921 176.006 127.56 168.7 131.263C160.473 135.436 151.12 135.245 141.72 135.056C133.38 134.888 125.001 134.719 117.342 137.598C107.007 141.481 99.4873 150.328 92.3331 158.741C88.6995 163.017 84.8655 167.4 79.7395 169.674C74.7701 171.879 69.1404 171.853 63.7061 171.791C57.3318 171.717 50.9558 171.643 44.5815 171.57C39.3274 171.509 30.364 172.083 25.1049 176.282L25.1975 138.06C30.7531 131.7 44.093 128.411 50.9642 127.759C55.4451 127.332 60.0001 127.465 64.4001 126.509C70.9546 125.085 76.7848 121.316 81.83 116.892C86.8668 112.477 91.2769 107.346 94.8835 101.7C98.6333 95.8301 101.741 89.1679 107.511 85.2687C113.075 81.5078 120.15 80.9919 126.861 80.766C140.447 80.3092 155.374 80.0782 165.597 71.1116C169.059 68.0755 171.702 64.2336 174.308 60.4356C178.549 54.2505 182.791 48.0654 187.034 41.8803C190.163 37.3203 194.14 29.7545 199.66 29.4713L199.751 104.114Z" fill="white"/>
</mask>
<g mask="url(#mask0)">
<path fill-rule="evenodd" clip-rule="evenodd" d="M82.5442 36.1807L82.7817 216.294L82.3606 216.295L82.123 36.1807" fill="#0A0B09"/>
<path fill-rule="evenodd" clip-rule="evenodd" d="M54.5442 36.1808L54.7817 216.294L54.3606 216.296L54.123 36.1808" fill="#0A0B09"/>
<path fill-rule="evenodd" clip-rule="evenodd" d="M112.541 36.1402L112.78 216.255H112.359L112.12 36.1402" fill="#0A0B09"/>
<path fill-rule="evenodd" clip-rule="evenodd" d="M142.537 36.0993L142.777 216.214H142.355L142.116 36.101" fill="#0A0B09"/>
<path fill-rule="evenodd" clip-rule="evenodd" d="M172.534 36.061L172.773 216.174L172.352 216.176L172.113 36.061" fill="#0A0B09"/>
<path fill-rule="evenodd" clip-rule="evenodd" d="M202.322 36.2308L22.339 36.4702V36.0488L202.32 35.8094" fill="#0A0B09"/>
<path fill-rule="evenodd" clip-rule="evenodd" d="M202.361 66.2496L22.3794 66.4889V66.0675L202.361 65.8281" fill="#0A0B09"/>
<path fill-rule="evenodd" clip-rule="evenodd" d="M202.401 96.2701L22.4181 96.5095V96.088L202.401 95.8486" fill="#0A0B09"/>
<path fill-rule="evenodd" clip-rule="evenodd" d="M202.441 126.289L22.4585 126.528V126.107L202.44 125.867" fill="#0A0B09"/>
<path fill-rule="evenodd" clip-rule="evenodd" d="M202.48 156.307L22.4989 156.547L22.4972 156.125L202.48 155.886" fill="#0A0B09"/>
</g>
<path fill-rule="evenodd" clip-rule="evenodd" d="M149.964 1.03838C144.955 2.56563 140.433 5.66226 137.199 9.78212C131.057 17.5937 129.879 28.3181 124.696 36.9624C120.064 44.6745 112.195 50.3604 103.42 52.3377C96.2047 53.956 88.4549 53.221 81.8732 56.3126C71.9896 60.9348 67.7372 72.4363 62.578 82.2117C54.7625 96.997 42.1619 110.054 26.0421 114.648C18.316 116.839 6.06431 118.943 0.306755 125.066L0 124.776C5.93452 118.5 18.2351 116.44 25.9275 114.242C41.8956 109.697 54.4287 96.729 62.2055 82.0145C67.3546 72.2863 71.6036 60.6718 81.6945 55.9316C88.4212 52.7844 96.2047 53.5362 103.327 51.9264C111.986 49.9777 119.766 44.3559 124.335 36.7466C129.466 28.217 130.637 17.4706 136.867 9.52252C140.157 5.33355 144.748 2.18803 149.841 0.635498L149.964 1.03838Z" fill="#0A0B09"/>
</svg>
