<svg width="200" height="177" viewBox="0 0 200 177" fill="none" xmlns="http://www.w3.org/2000/svg">
<path opacity="0.4" fill-rule="evenodd" clip-rule="evenodd" d="M199.7 104.124C193.729 108.138 192.331 108.879 186.777 114.907C181.22 120.935 175.937 127.575 168.626 131.281C153.09 139.154 133.536 131.492 117.23 137.616C106.888 141.5 99.3607 150.349 92.2029 158.764C88.5667 163.041 84.7298 167.425 79.6 169.699C74.627 171.905 68.9931 171.88 63.5548 171.817C57.1758 171.743 50.7952 171.67 44.4162 171.596C39.1583 171.536 30.1883 172.109 24.9253 176.309L25.0163 138.078C30.5777 131.716 43.9274 128.427 50.8019 127.774C55.2878 127.347 59.8461 127.481 64.2494 126.525C70.8087 125.1 76.6449 121.329 81.6921 116.905C86.7326 112.489 91.1459 107.356 94.7552 101.709C98.5077 95.8376 101.618 89.1738 107.392 85.2737C112.96 81.5118 120.04 80.9975 126.756 80.7699C140.352 80.3129 155.29 80.082 165.521 71.1131C168.985 68.0763 171.63 64.2335 174.238 60.4345C178.483 54.2479 182.727 48.0613 186.974 41.8746C190.104 37.3135 194.084 29.7459 199.609 29.4626L199.7 104.124Z" fill="white"/>
<path fill-rule="evenodd" clip-rule="evenodd" d="M25.0148 176.255L24.9136 176.441L0.000488281 163.016V124.357L25.2257 137.949V176.609L24.9136 176.441L25.0148 176.255H24.804V138.2L0.42218 125.063V162.765L25.1143 176.069L25.0148 176.255H24.804H25.0148Z" fill="white"/>
<path fill-rule="evenodd" clip-rule="evenodd" d="M150.049 0.633789L200 27.5083V104.237H199.578V27.7595L149.85 1.00469L150.049 0.633789Z" fill="white"/>
<mask id="mask0" mask-type="alpha" maskUnits="userSpaceOnUse" x="25" y="29" width="175" height="148">
<path d="M199.751 104.114C193.784 108.128 192.388 108.868 186.837 114.895C181.285 120.921 176.006 127.56 168.7 131.263C160.473 135.436 151.12 135.245 141.72 135.056C133.38 134.888 125.001 134.719 117.342 137.599C107.007 141.481 99.4873 150.328 92.3331 158.742C88.6995 163.017 84.8655 167.4 79.7395 169.674C74.7701 171.879 69.1404 171.854 63.7061 171.791C57.3318 171.717 50.9558 171.643 44.5815 171.57C39.3274 171.51 30.364 172.083 25.1049 176.282L25.1975 138.061C30.7531 131.7 44.093 128.411 50.9642 127.759C55.4451 127.332 60.0001 127.465 64.4001 126.51C70.9546 125.085 76.7848 121.316 81.83 116.892C86.8668 112.477 91.2769 107.346 94.8835 101.7C98.6333 95.8302 101.741 89.168 107.511 85.2688C113.075 81.5079 120.15 80.992 126.861 80.7661C140.447 80.3093 155.374 80.0783 165.597 71.1117C169.059 68.0756 171.702 64.2338 174.308 60.4357C178.549 54.2506 182.791 48.0655 187.034 41.8804C190.163 37.3204 194.14 29.7546 199.66 29.4714L199.751 104.114Z" fill="white"/>
</mask>
<g mask="url(#mask0)">
<path fill-rule="evenodd" clip-rule="evenodd" d="M82.5442 36.1808L82.7817 216.294L82.3606 216.296L82.123 36.1808" fill="white"/>
<path fill-rule="evenodd" clip-rule="evenodd" d="M54.5443 36.1809L54.7818 216.294L54.3607 216.296L54.1232 36.1809" fill="white"/>
<path fill-rule="evenodd" clip-rule="evenodd" d="M112.541 36.1403L112.78 216.255H112.359L112.12 36.1403" fill="white"/>
<path fill-rule="evenodd" clip-rule="evenodd" d="M142.537 36.0994L142.777 216.214H142.355L142.116 36.1011" fill="white"/>
<path fill-rule="evenodd" clip-rule="evenodd" d="M172.534 36.0612L172.773 216.174L172.352 216.176L172.113 36.0612" fill="white"/>
<path fill-rule="evenodd" clip-rule="evenodd" d="M202.322 36.231L22.339 36.4703V36.0489L202.32 35.8095" fill="white"/>
<path fill-rule="evenodd" clip-rule="evenodd" d="M202.361 66.2497L22.3794 66.4891V66.0676L202.361 65.8282" fill="white"/>
<path fill-rule="evenodd" clip-rule="evenodd" d="M202.401 96.2702L22.4181 96.5096V96.0881L202.401 95.8488" fill="white"/>
<path fill-rule="evenodd" clip-rule="evenodd" d="M202.441 126.289L22.4585 126.528V126.107L202.44 125.867" fill="white"/>
<path fill-rule="evenodd" clip-rule="evenodd" d="M202.48 156.307L22.4989 156.547L22.4972 156.125L202.48 155.886" fill="white"/>
</g>
<path fill-rule="evenodd" clip-rule="evenodd" d="M149.964 1.0385C144.955 2.56575 140.433 5.66239 137.199 9.78224C131.057 17.5938 129.879 28.3182 124.696 36.9625C120.064 44.6746 112.195 50.3605 103.42 52.3378C96.2047 53.9561 88.4549 53.2211 81.8732 56.3127C71.9896 60.9349 67.7372 72.4365 62.578 82.2119C54.7625 96.9971 42.1619 110.055 26.0421 114.648C18.316 116.84 6.06431 118.943 0.306755 125.066L0 124.776C5.93452 118.5 18.2351 116.44 25.9275 114.242C41.8956 109.697 54.4287 96.7291 62.2055 82.0146C67.3546 72.2864 71.6036 60.6719 81.6945 55.9317C88.4212 52.7845 96.2047 53.5364 103.327 51.9265C111.986 49.9778 119.766 44.356 124.335 36.7467C129.466 28.2171 130.637 17.4707 136.867 9.52265C140.157 5.33367 144.748 2.18815 149.841 0.63562L149.964 1.0385Z" fill="white"/>
</svg>
